<?xml version="1.0" encoding="utf-8"?>
<!-- Generator: Adobe Illustrator 19.1.0, SVG Export Plug-In . SVG Version: 6.00 Build 0)  -->
<svg version="1.1" id="Layer_1" xmlns="http://www.w3.org/2000/svg" xmlns:xlink="http://www.w3.org/1999/xlink" x="0px" y="0px"
	 width="198px" height="216px" viewBox="0 0 198 216" style="enable-background:new 0 0 198 216;" xml:space="preserve">
<style type="text/css">
	.st0{fill:none;stroke:#000000;stroke-linecap:round;stroke-linejoin:round;stroke-miterlimit:10;}
	.st1{fill:none;stroke:#000000;stroke-width:1.5;stroke-linecap:round;stroke-linejoin:round;stroke-miterlimit:10;}
	.st2{fill:none;stroke:#000000;stroke-linecap:round;stroke-miterlimit:10;}
	.st3{fill:none;stroke:#000000;stroke-width:1.5;stroke-linecap:round;stroke-miterlimit:10;}
	.st4{fill:none;stroke:#000000;stroke-width:2;stroke-linecap:round;stroke-linejoin:round;stroke-miterlimit:10;}
	.st5{fill:none;stroke:#000000;stroke-width:1.5;stroke-miterlimit:10;}
	.st6{fill:none;stroke:#000000;stroke-miterlimit:10;}
	.st7{fill:none;stroke:#000000;stroke-width:2;stroke-miterlimit:10;}
	.st8{fill:none;stroke:#000000;stroke-width:2;stroke-linecap:round;stroke-miterlimit:10;}
	.st9{fill:none;stroke:#000000;stroke-linecap:round;stroke-linejoin:round;}
	.st10{fill:none;}
	.st11{stroke:#000000;stroke-linecap:round;stroke-linejoin:round;stroke-miterlimit:10;}
	.st12{fill:none;stroke:#000000;stroke-width:1.5;stroke-linejoin:round;stroke-miterlimit:10;}
	.st13{fill:none;stroke:#000000;stroke-linejoin:round;stroke-miterlimit:10;}
	.st14{clip-path:url(#SVGID_2_);fill:none;stroke:#000000;stroke-linejoin:round;stroke-miterlimit:10;}
	.st15{clip-path:url(#SVGID_2_);fill:none;stroke:#ADADEB;stroke-linejoin:round;stroke-miterlimit:10;}
	.st16{clip-path:url(#SVGID_2_);}
	.st17{stroke:#000000;stroke-linejoin:round;stroke-miterlimit:10;}
	.st18{stroke:#000000;stroke-width:3;stroke-linejoin:round;stroke-miterlimit:10;}
	.st19{fill:none;stroke:#000000;stroke-linejoin:round;}
	.st20{fill:none;stroke:#E07D10;stroke-width:2;stroke-linecap:round;stroke-miterlimit:10;}
	.st21{fill:#E07D10;}
	.st22{font-family:'KaTeX_Main-Regular';}
	.st23{font-size:21px;}
	.st24{font-family:'KaTeX_Main-Italic';}
	.st25{font-size:18px;}
	.st26{fill:#11ACCD;}
	.st27{fill:none;stroke:#11ACCD;stroke-width:2;stroke-linecap:round;stroke-linejoin:round;}
	.st28{fill:#66AFE9;}
	.st29{fill:none;stroke:#66AFE9;stroke-miterlimit:10;}
</style>
<g>
	<circle class="st11" cx="114" cy="204" r="1.5"/>
	<rect x="108" y="198" class="st10" width="12" height="12"/>
</g>
<g>
	<circle class="st11" cx="114" cy="108" r="1.5"/>
	<rect x="108" y="102" class="st10" width="12" height="12"/>
</g>
<g>
	<line class="st0" x1="114" y1="132.6" x2="114" y2="114"/>
	<polyline class="st4" points="114,179.4 105,175.5 123,167.7 105,159.9 123,152.1 105,144.3 123,136.5 114,132.6 	"/>
	<line class="st0" x1="114" y1="198" x2="114" y2="179.4"/>
	<rect x="102" y="114" class="st10" width="24" height="84"/>
</g>
<g>
	<line class="st0" x1="114" y1="36.6" x2="114" y2="18"/>
	<polyline class="st4" points="114,83.4 105,79.5 123,71.7 105,63.9 123,56.1 105,48.3 123,40.5 114,36.6 	"/>
	<line class="st0" x1="114" y1="102" x2="114" y2="83.4"/>
	<rect x="102" y="18" class="st10" width="24" height="84"/>
</g>
<g>
	<g>
		<path class="st20" d="M54.2,174c-3.7-12.9-6.2-37.6-6.2-66c0-23.9,1.8-45.1,4.5-59"/>
		<g>
			<path class="st21" d="M54.2,42c0.5,3.6,1.6,8.2,3.3,11.3L52.4,50l-6,0.7C49.1,48.7,52.2,45,54.2,42z"/>
		</g>
	</g>
</g>
<text transform="matrix(1 0 0 1 39.8311 30)" class="st21 st22 st23">+</text>
<text transform="matrix(0.583 0 0 0.583 48 180.9932)" class="st21 st22 st23">  </text>
<text transform="matrix(1 0 0 1 39.8311 198)" class="st21 st22 st23">−</text>
<text transform="matrix(1 0 0 1 15.3 108)" class="st21 st24 st25">v</text>
<text transform="matrix(0.583 0 0 0.583 23.5798 113.9941)" class="st21 st24 st25">in</text>
<text transform="matrix(1.0107 0 0 1 165.7437 122.4001)" class="st21 st22 st23">+</text>
<text transform="matrix(0.5892 0 0 0.583 174 179.7932)" class="st21 st22 st23">   </text>
<text transform="matrix(1.0107 0 0 1 165.7437 198.0002)" class="st21 st22 st23">−</text>
<g>
	<g>
		<path class="st20" d="M156,186c3.7-6.4,6.2-18.8,6.2-33c0-10.2-1.3-19.5-3.4-26.3"/>
		<g>
			<path class="st21" d="M156,120c2.4,2.7,6,5.8,9.1,7.4l-6.1,0.2l-4.5,4C155.7,128.4,156.1,123.6,156,120z"/>
		</g>
	</g>
</g>
<text transform="matrix(1 0 0 1 168.6195 156.0001)" class="st21 st24 st25">v</text>
<text transform="matrix(0.583 0 0 0.583 176.8993 161.9943)" class="st21 st24 st25">out</text>
<text transform="matrix(1 0 0 1 77.9998 66)" class="st22 st25">R1</text>
<text transform="matrix(1 0 0 1 77.9998 156)" class="st22 st25">R2</text>
<line class="st6" x1="114" y1="108" x2="150" y2="108"/>
<polyline class="st6" points="66,12 114,12 114,18 "/>
<line class="st6" x1="66" y1="204" x2="150" y2="204"/>
<line class="st6" x1="114" y1="102" x2="114" y2="114"/>
<g>
	<circle class="st6" cx="153" cy="108" r="3"/>
	<rect x="150" y="102" class="st10" width="6" height="12"/>
</g>
<g>
	<circle class="st6" cx="153" cy="204" r="3"/>
	<rect x="150" y="198" class="st10" width="6" height="12"/>
</g>
<g>
	<circle class="st6" cx="63" cy="204" r="3"/>
	<rect x="60" y="198" class="st10" width="6" height="12"/>
</g>
<g>
	<circle class="st6" cx="63" cy="12" r="3"/>
	<rect x="60" y="6" class="st10" width="6" height="12"/>
</g>
<line class="st6" x1="114" y1="198" x2="114" y2="204"/>
</svg>
